<mxfile host="app.diagrams.net" agent="Mozilla/5.0 (Windows NT 10.0; Win64; x64) AppleWebKit/537.36 (KHTML, like Gecko) Chrome/132.0.0.0 Safari/537.36" version="26.0.8">
  <diagram name="Page-1" id="8QJn-TW8QMsIgZbjxpnn">
    <mxGraphModel dx="1320" dy="702" grid="0" gridSize="10" guides="1" tooltips="1" connect="1" arrows="1" fold="1" page="1" pageScale="1" pageWidth="1169" pageHeight="1654" math="0" shadow="0">
      <root>
        <mxCell id="0" />
        <mxCell id="1" parent="0" />
        <mxCell id="zI_swqJ2BTHHL39JEJDZ-3" value="" style="triangle;whiteSpace=wrap;html=1;" parent="1" vertex="1">
          <mxGeometry x="140" y="420" width="40" height="40" as="geometry" />
        </mxCell>
        <mxCell id="zI_swqJ2BTHHL39JEJDZ-4" value="" style="endArrow=none;html=1;rounded=0;entryX=0;entryY=0.5;entryDx=0;entryDy=0;jumpStyle=arc;" parent="1" target="zI_swqJ2BTHHL39JEJDZ-3" edge="1">
          <mxGeometry width="50" height="50" relative="1" as="geometry">
            <mxPoint x="100" y="440" as="sourcePoint" />
            <mxPoint x="110" y="430" as="targetPoint" />
          </mxGeometry>
        </mxCell>
        <mxCell id="zI_swqJ2BTHHL39JEJDZ-5" value="" style="endArrow=none;html=1;rounded=0;exitX=0.5;exitY=0;exitDx=0;exitDy=0;jumpStyle=arc;" parent="1" source="zI_swqJ2BTHHL39JEJDZ-3" edge="1">
          <mxGeometry width="50" height="50" relative="1" as="geometry">
            <mxPoint x="140" y="410" as="sourcePoint" />
            <mxPoint x="160" y="410" as="targetPoint" />
          </mxGeometry>
        </mxCell>
        <mxCell id="zI_swqJ2BTHHL39JEJDZ-6" value="" style="triangle;whiteSpace=wrap;html=1;direction=north;" parent="1" vertex="1">
          <mxGeometry x="240" y="460" width="40" height="40" as="geometry" />
        </mxCell>
        <mxCell id="zI_swqJ2BTHHL39JEJDZ-7" value="" style="endArrow=none;html=1;rounded=0;exitX=0.5;exitY=0;exitDx=0;exitDy=0;jumpStyle=arc;" parent="1" source="zI_swqJ2BTHHL39JEJDZ-6" edge="1">
          <mxGeometry width="50" height="50" relative="1" as="geometry">
            <mxPoint x="240" y="450" as="sourcePoint" />
            <mxPoint x="220" y="480" as="targetPoint" />
          </mxGeometry>
        </mxCell>
        <mxCell id="zI_swqJ2BTHHL39JEJDZ-8" value="" style="triangle;whiteSpace=wrap;html=1;direction=north;" parent="1" vertex="1">
          <mxGeometry x="480" y="460" width="40" height="40" as="geometry" />
        </mxCell>
        <mxCell id="zI_swqJ2BTHHL39JEJDZ-9" value="" style="endArrow=none;html=1;rounded=0;exitX=0.5;exitY=0;exitDx=0;exitDy=0;jumpStyle=arc;" parent="1" source="zI_swqJ2BTHHL39JEJDZ-8" edge="1">
          <mxGeometry width="50" height="50" relative="1" as="geometry">
            <mxPoint x="480" y="450" as="sourcePoint" />
            <mxPoint x="460" y="480" as="targetPoint" />
          </mxGeometry>
        </mxCell>
        <mxCell id="zI_swqJ2BTHHL39JEJDZ-10" value="" style="triangle;whiteSpace=wrap;html=1;direction=north;" parent="1" vertex="1">
          <mxGeometry x="720" y="460" width="40" height="40" as="geometry" />
        </mxCell>
        <mxCell id="zI_swqJ2BTHHL39JEJDZ-11" value="" style="endArrow=none;html=1;rounded=0;jumpStyle=arc;" parent="1" source="zI_swqJ2BTHHL39JEJDZ-10" edge="1">
          <mxGeometry width="50" height="50" relative="1" as="geometry">
            <mxPoint x="720" y="450" as="sourcePoint" />
            <mxPoint x="700" y="480" as="targetPoint" />
          </mxGeometry>
        </mxCell>
        <mxCell id="zI_swqJ2BTHHL39JEJDZ-12" value="" style="triangle;whiteSpace=wrap;html=1;direction=north;" parent="1" vertex="1">
          <mxGeometry x="981" y="460" width="40" height="40" as="geometry" />
        </mxCell>
        <mxCell id="zI_swqJ2BTHHL39JEJDZ-13" value="" style="endArrow=none;html=1;rounded=0;exitX=0.5;exitY=0;exitDx=0;exitDy=0;jumpStyle=arc;" parent="1" source="zI_swqJ2BTHHL39JEJDZ-12" edge="1">
          <mxGeometry width="50" height="50" relative="1" as="geometry">
            <mxPoint x="981" y="450" as="sourcePoint" />
            <mxPoint x="961" y="480" as="targetPoint" />
          </mxGeometry>
        </mxCell>
        <mxCell id="zI_swqJ2BTHHL39JEJDZ-14" value="Reg.A" style="rounded=0;whiteSpace=wrap;html=1;" parent="1" vertex="1">
          <mxGeometry x="210" y="540" width="100" height="50" as="geometry" />
        </mxCell>
        <mxCell id="zI_swqJ2BTHHL39JEJDZ-15" value="" style="triangle;whiteSpace=wrap;html=1;direction=north;" parent="1" vertex="1">
          <mxGeometry x="220" y="580" width="10" height="10" as="geometry" />
        </mxCell>
        <mxCell id="zI_swqJ2BTHHL39JEJDZ-16" value="" style="endArrow=none;html=1;rounded=0;entryX=-0.006;entryY=0.602;entryDx=0;entryDy=0;entryPerimeter=0;" parent="1" target="zI_swqJ2BTHHL39JEJDZ-14" edge="1">
          <mxGeometry width="50" height="50" relative="1" as="geometry">
            <mxPoint x="140" y="570" as="sourcePoint" />
            <mxPoint x="190" y="570" as="targetPoint" />
          </mxGeometry>
        </mxCell>
        <mxCell id="zI_swqJ2BTHHL39JEJDZ-17" value="" style="endArrow=none;html=1;rounded=0;entryX=0;entryY=0.5;entryDx=0;entryDy=0;exitX=0.5;exitY=0;exitDx=0;exitDy=0;jumpStyle=arc;" parent="1" source="zI_swqJ2BTHHL39JEJDZ-14" target="zI_swqJ2BTHHL39JEJDZ-6" edge="1">
          <mxGeometry width="50" height="50" relative="1" as="geometry">
            <mxPoint x="120" y="550" as="sourcePoint" />
            <mxPoint x="170" y="500" as="targetPoint" />
          </mxGeometry>
        </mxCell>
        <mxCell id="zI_swqJ2BTHHL39JEJDZ-18" value="Reg.B" style="rounded=0;whiteSpace=wrap;html=1;" parent="1" vertex="1">
          <mxGeometry x="450" y="540" width="100" height="50" as="geometry" />
        </mxCell>
        <mxCell id="zI_swqJ2BTHHL39JEJDZ-19" value="" style="triangle;whiteSpace=wrap;html=1;direction=north;" parent="1" vertex="1">
          <mxGeometry x="460" y="580" width="10" height="10" as="geometry" />
        </mxCell>
        <mxCell id="zI_swqJ2BTHHL39JEJDZ-20" value="" style="endArrow=none;html=1;rounded=0;entryX=-0.006;entryY=0.602;entryDx=0;entryDy=0;entryPerimeter=0;jumpStyle=arc;" parent="1" target="zI_swqJ2BTHHL39JEJDZ-18" edge="1">
          <mxGeometry width="50" height="50" relative="1" as="geometry">
            <mxPoint x="420" y="570" as="sourcePoint" />
            <mxPoint x="430" y="570" as="targetPoint" />
          </mxGeometry>
        </mxCell>
        <mxCell id="zI_swqJ2BTHHL39JEJDZ-21" value="" style="endArrow=none;html=1;rounded=0;entryX=0;entryY=0.5;entryDx=0;entryDy=0;exitX=0.5;exitY=0;exitDx=0;exitDy=0;jumpStyle=arc;" parent="1" source="zI_swqJ2BTHHL39JEJDZ-18" edge="1">
          <mxGeometry width="50" height="50" relative="1" as="geometry">
            <mxPoint x="360" y="550" as="sourcePoint" />
            <mxPoint x="500" y="500" as="targetPoint" />
          </mxGeometry>
        </mxCell>
        <mxCell id="zI_swqJ2BTHHL39JEJDZ-22" value="Reg.C" style="rounded=0;whiteSpace=wrap;html=1;" parent="1" vertex="1">
          <mxGeometry x="690" y="540" width="100" height="50" as="geometry" />
        </mxCell>
        <mxCell id="zI_swqJ2BTHHL39JEJDZ-23" value="" style="triangle;whiteSpace=wrap;html=1;direction=north;" parent="1" vertex="1">
          <mxGeometry x="700" y="580" width="10" height="10" as="geometry" />
        </mxCell>
        <mxCell id="zI_swqJ2BTHHL39JEJDZ-24" value="" style="endArrow=none;html=1;rounded=0;entryX=-0.006;entryY=0.602;entryDx=0;entryDy=0;entryPerimeter=0;jumpStyle=arc;" parent="1" target="zI_swqJ2BTHHL39JEJDZ-22" edge="1">
          <mxGeometry width="50" height="50" relative="1" as="geometry">
            <mxPoint x="660" y="570" as="sourcePoint" />
            <mxPoint x="670" y="570" as="targetPoint" />
          </mxGeometry>
        </mxCell>
        <mxCell id="zI_swqJ2BTHHL39JEJDZ-25" value="" style="endArrow=none;html=1;rounded=0;entryX=0;entryY=0.5;entryDx=0;entryDy=0;exitX=0.5;exitY=0;exitDx=0;exitDy=0;jumpStyle=arc;" parent="1" source="zI_swqJ2BTHHL39JEJDZ-22" edge="1">
          <mxGeometry width="50" height="50" relative="1" as="geometry">
            <mxPoint x="600" y="550" as="sourcePoint" />
            <mxPoint x="740" y="500" as="targetPoint" />
          </mxGeometry>
        </mxCell>
        <mxCell id="zI_swqJ2BTHHL39JEJDZ-29" value="Reg.D" style="rounded=0;whiteSpace=wrap;html=1;" parent="1" vertex="1">
          <mxGeometry x="950" y="540" width="100" height="50" as="geometry" />
        </mxCell>
        <mxCell id="zI_swqJ2BTHHL39JEJDZ-30" value="" style="triangle;whiteSpace=wrap;html=1;direction=north;" parent="1" vertex="1">
          <mxGeometry x="960" y="580" width="10" height="10" as="geometry" />
        </mxCell>
        <mxCell id="zI_swqJ2BTHHL39JEJDZ-31" value="" style="endArrow=none;html=1;rounded=0;entryX=-0.006;entryY=0.602;entryDx=0;entryDy=0;entryPerimeter=0;jumpStyle=arc;" parent="1" target="zI_swqJ2BTHHL39JEJDZ-29" edge="1">
          <mxGeometry width="50" height="50" relative="1" as="geometry">
            <mxPoint x="920" y="570" as="sourcePoint" />
            <mxPoint x="930" y="570" as="targetPoint" />
          </mxGeometry>
        </mxCell>
        <mxCell id="zI_swqJ2BTHHL39JEJDZ-32" value="" style="endArrow=none;html=1;rounded=0;entryX=0;entryY=0.5;entryDx=0;entryDy=0;exitX=0.5;exitY=0;exitDx=0;exitDy=0;jumpStyle=arc;" parent="1" edge="1">
          <mxGeometry width="50" height="50" relative="1" as="geometry">
            <mxPoint x="1000.8" y="540" as="sourcePoint" />
            <mxPoint x="1000.8" y="500" as="targetPoint" />
          </mxGeometry>
        </mxCell>
        <mxCell id="zI_swqJ2BTHHL39JEJDZ-33" value="Adder1" style="rounded=0;whiteSpace=wrap;html=1;" parent="1" vertex="1">
          <mxGeometry x="370" y="300" width="60" height="40" as="geometry" />
        </mxCell>
        <mxCell id="zI_swqJ2BTHHL39JEJDZ-34" value="" style="endArrow=none;html=1;rounded=0;" parent="1" edge="1">
          <mxGeometry width="50" height="50" relative="1" as="geometry">
            <mxPoint x="120" y="640" as="sourcePoint" />
            <mxPoint x="965" y="640" as="targetPoint" />
          </mxGeometry>
        </mxCell>
        <mxCell id="zI_swqJ2BTHHL39JEJDZ-35" value="" style="endArrow=none;html=1;rounded=0;entryX=0;entryY=0.5;entryDx=0;entryDy=0;" parent="1" target="zI_swqJ2BTHHL39JEJDZ-15" edge="1">
          <mxGeometry width="50" height="50" relative="1" as="geometry">
            <mxPoint x="225" y="640" as="sourcePoint" />
            <mxPoint x="230" y="610" as="targetPoint" />
          </mxGeometry>
        </mxCell>
        <mxCell id="zI_swqJ2BTHHL39JEJDZ-36" value="" style="endArrow=none;html=1;rounded=0;entryX=0;entryY=0.5;entryDx=0;entryDy=0;" parent="1" target="zI_swqJ2BTHHL39JEJDZ-19" edge="1">
          <mxGeometry width="50" height="50" relative="1" as="geometry">
            <mxPoint x="465" y="640" as="sourcePoint" />
            <mxPoint x="480" y="610" as="targetPoint" />
          </mxGeometry>
        </mxCell>
        <mxCell id="zI_swqJ2BTHHL39JEJDZ-37" value="" style="endArrow=none;html=1;rounded=0;entryX=0;entryY=0.5;entryDx=0;entryDy=0;" parent="1" target="zI_swqJ2BTHHL39JEJDZ-23" edge="1">
          <mxGeometry width="50" height="50" relative="1" as="geometry">
            <mxPoint x="704.86" y="640" as="sourcePoint" />
            <mxPoint x="704.86" y="590" as="targetPoint" />
          </mxGeometry>
        </mxCell>
        <mxCell id="zI_swqJ2BTHHL39JEJDZ-38" value="" style="endArrow=none;html=1;rounded=0;entryX=0;entryY=0.5;entryDx=0;entryDy=0;" parent="1" edge="1">
          <mxGeometry width="50" height="50" relative="1" as="geometry">
            <mxPoint x="964.86" y="640" as="sourcePoint" />
            <mxPoint x="965" y="590" as="targetPoint" />
          </mxGeometry>
        </mxCell>
        <mxCell id="zI_swqJ2BTHHL39JEJDZ-39" value="" style="endArrow=none;html=1;rounded=0;exitX=1;exitY=0.5;exitDx=0;exitDy=0;jumpStyle=arc;" parent="1" source="zI_swqJ2BTHHL39JEJDZ-3" edge="1">
          <mxGeometry width="50" height="50" relative="1" as="geometry">
            <mxPoint x="230" y="450" as="sourcePoint" />
            <mxPoint x="1160" y="440" as="targetPoint" />
          </mxGeometry>
        </mxCell>
        <mxCell id="zI_swqJ2BTHHL39JEJDZ-40" value="" style="endArrow=none;html=1;rounded=0;" parent="1" edge="1">
          <mxGeometry width="50" height="50" relative="1" as="geometry">
            <mxPoint x="180" y="455" as="sourcePoint" />
            <mxPoint x="210" y="425" as="targetPoint" />
          </mxGeometry>
        </mxCell>
        <mxCell id="zI_swqJ2BTHHL39JEJDZ-41" value="" style="endArrow=none;html=1;rounded=0;entryX=1;entryY=0.5;entryDx=0;entryDy=0;" parent="1" target="zI_swqJ2BTHHL39JEJDZ-6" edge="1">
          <mxGeometry width="50" height="50" relative="1" as="geometry">
            <mxPoint x="260" y="440" as="sourcePoint" />
            <mxPoint x="200" y="460" as="targetPoint" />
          </mxGeometry>
        </mxCell>
        <mxCell id="zI_swqJ2BTHHL39JEJDZ-42" value="" style="endArrow=none;html=1;rounded=0;entryX=1;entryY=0.5;entryDx=0;entryDy=0;" parent="1" edge="1">
          <mxGeometry width="50" height="50" relative="1" as="geometry">
            <mxPoint x="499.91999999999996" y="440" as="sourcePoint" />
            <mxPoint x="499.91999999999996" y="460" as="targetPoint" />
          </mxGeometry>
        </mxCell>
        <mxCell id="zI_swqJ2BTHHL39JEJDZ-43" value="" style="endArrow=none;html=1;rounded=0;entryX=1;entryY=0.5;entryDx=0;entryDy=0;" parent="1" edge="1">
          <mxGeometry width="50" height="50" relative="1" as="geometry">
            <mxPoint x="739.92" y="440" as="sourcePoint" />
            <mxPoint x="739.92" y="460" as="targetPoint" />
          </mxGeometry>
        </mxCell>
        <mxCell id="zI_swqJ2BTHHL39JEJDZ-44" value="" style="endArrow=none;html=1;rounded=0;entryX=1;entryY=0.5;entryDx=0;entryDy=0;" parent="1" edge="1">
          <mxGeometry width="50" height="50" relative="1" as="geometry">
            <mxPoint x="1000.92" y="440" as="sourcePoint" />
            <mxPoint x="1000.92" y="460" as="targetPoint" />
          </mxGeometry>
        </mxCell>
        <mxCell id="zI_swqJ2BTHHL39JEJDZ-46" value="" style="endArrow=classic;html=1;rounded=0;entryX=0.721;entryY=1.043;entryDx=0;entryDy=0;entryPerimeter=0;" parent="1" target="zI_swqJ2BTHHL39JEJDZ-14" edge="1">
          <mxGeometry width="50" height="50" relative="1" as="geometry">
            <mxPoint x="360" y="440" as="sourcePoint" />
            <mxPoint x="270" y="610" as="targetPoint" />
            <Array as="points">
              <mxPoint x="360" y="620" />
              <mxPoint x="282" y="620" />
            </Array>
          </mxGeometry>
        </mxCell>
        <mxCell id="zI_swqJ2BTHHL39JEJDZ-47" value="" style="endArrow=classic;html=1;rounded=0;entryX=0.721;entryY=1.043;entryDx=0;entryDy=0;entryPerimeter=0;" parent="1" edge="1">
          <mxGeometry width="50" height="50" relative="1" as="geometry">
            <mxPoint x="608" y="440" as="sourcePoint" />
            <mxPoint x="530" y="592" as="targetPoint" />
            <Array as="points">
              <mxPoint x="608" y="620" />
              <mxPoint x="530" y="620" />
            </Array>
          </mxGeometry>
        </mxCell>
        <mxCell id="zI_swqJ2BTHHL39JEJDZ-48" value="" style="endArrow=classic;html=1;rounded=0;entryX=0.721;entryY=1.043;entryDx=0;entryDy=0;entryPerimeter=0;" parent="1" edge="1">
          <mxGeometry width="50" height="50" relative="1" as="geometry">
            <mxPoint x="858" y="440" as="sourcePoint" />
            <mxPoint x="780" y="592" as="targetPoint" />
            <Array as="points">
              <mxPoint x="858" y="620" />
              <mxPoint x="780" y="620" />
            </Array>
          </mxGeometry>
        </mxCell>
        <mxCell id="zI_swqJ2BTHHL39JEJDZ-49" value="" style="endArrow=classic;html=1;rounded=0;entryX=0.721;entryY=1.043;entryDx=0;entryDy=0;entryPerimeter=0;" parent="1" edge="1">
          <mxGeometry width="50" height="50" relative="1" as="geometry">
            <mxPoint x="1108" y="440" as="sourcePoint" />
            <mxPoint x="1030" y="592" as="targetPoint" />
            <Array as="points">
              <mxPoint x="1108" y="620" />
              <mxPoint x="1030" y="620" />
            </Array>
          </mxGeometry>
        </mxCell>
        <mxCell id="zI_swqJ2BTHHL39JEJDZ-50" value="" style="endArrow=none;html=1;rounded=0;" parent="1" edge="1">
          <mxGeometry width="50" height="50" relative="1" as="geometry">
            <mxPoint x="350" y="460" as="sourcePoint" />
            <mxPoint x="370" y="450" as="targetPoint" />
          </mxGeometry>
        </mxCell>
        <mxCell id="zI_swqJ2BTHHL39JEJDZ-51" value="" style="endArrow=none;html=1;rounded=0;" parent="1" edge="1">
          <mxGeometry width="50" height="50" relative="1" as="geometry">
            <mxPoint x="600" y="460" as="sourcePoint" />
            <mxPoint x="620" y="450" as="targetPoint" />
          </mxGeometry>
        </mxCell>
        <mxCell id="zI_swqJ2BTHHL39JEJDZ-52" value="" style="endArrow=none;html=1;rounded=0;" parent="1" edge="1">
          <mxGeometry width="50" height="50" relative="1" as="geometry">
            <mxPoint x="850" y="460" as="sourcePoint" />
            <mxPoint x="870" y="450" as="targetPoint" />
          </mxGeometry>
        </mxCell>
        <mxCell id="zI_swqJ2BTHHL39JEJDZ-53" value="" style="endArrow=none;html=1;rounded=0;" parent="1" edge="1">
          <mxGeometry width="50" height="50" relative="1" as="geometry">
            <mxPoint x="1100" y="460" as="sourcePoint" />
            <mxPoint x="1120" y="450" as="targetPoint" />
          </mxGeometry>
        </mxCell>
        <mxCell id="zI_swqJ2BTHHL39JEJDZ-54" value="" style="endArrow=none;html=1;rounded=0;jumpStyle=arc;entryX=0.173;entryY=1.02;entryDx=0;entryDy=0;entryPerimeter=0;" parent="1" target="zI_swqJ2BTHHL39JEJDZ-33" edge="1">
          <mxGeometry width="50" height="50" relative="1" as="geometry">
            <mxPoint x="260" y="520" as="sourcePoint" />
            <mxPoint x="340" y="340" as="targetPoint" />
            <Array as="points">
              <mxPoint x="300" y="520" />
              <mxPoint x="300" y="380" />
              <mxPoint x="380" y="380" />
            </Array>
          </mxGeometry>
        </mxCell>
        <mxCell id="zI_swqJ2BTHHL39JEJDZ-55" value="" style="endArrow=none;html=1;rounded=0;entryX=0.75;entryY=1;entryDx=0;entryDy=0;jumpStyle=arc;" parent="1" target="zI_swqJ2BTHHL39JEJDZ-33" edge="1">
          <mxGeometry width="50" height="50" relative="1" as="geometry">
            <mxPoint x="500" y="520" as="sourcePoint" />
            <mxPoint x="530" y="360" as="targetPoint" />
            <Array as="points">
              <mxPoint x="415" y="520" />
              <mxPoint x="415" y="380" />
            </Array>
          </mxGeometry>
        </mxCell>
        <mxCell id="zI_swqJ2BTHHL39JEJDZ-56" value="" style="endArrow=none;html=1;rounded=0;entryX=0;entryY=0.5;entryDx=0;entryDy=0;jumpStyle=arc;" parent="1" target="zI_swqJ2BTHHL39JEJDZ-33" edge="1">
          <mxGeometry width="50" height="50" relative="1" as="geometry">
            <mxPoint x="330" y="320" as="sourcePoint" />
            <mxPoint x="330" y="330" as="targetPoint" />
          </mxGeometry>
        </mxCell>
        <mxCell id="zI_swqJ2BTHHL39JEJDZ-57" value="Input&lt;div&gt;data&lt;/div&gt;" style="text;html=1;align=center;verticalAlign=middle;resizable=0;points=[];autosize=1;strokeColor=none;fillColor=none;" parent="1" vertex="1">
          <mxGeometry x="45" y="423" width="50" height="40" as="geometry" />
        </mxCell>
        <mxCell id="zI_swqJ2BTHHL39JEJDZ-58" value="enbIn" style="text;html=1;align=center;verticalAlign=middle;resizable=0;points=[];autosize=1;strokeColor=none;fillColor=none;" parent="1" vertex="1">
          <mxGeometry x="135" y="380" width="50" height="30" as="geometry" />
        </mxCell>
        <mxCell id="zI_swqJ2BTHHL39JEJDZ-59" value="16" style="text;html=1;align=center;verticalAlign=middle;resizable=0;points=[];autosize=1;strokeColor=none;fillColor=none;" parent="1" vertex="1">
          <mxGeometry x="175" y="410" width="40" height="30" as="geometry" />
        </mxCell>
        <mxCell id="zI_swqJ2BTHHL39JEJDZ-60" value="enbA" style="text;html=1;align=center;verticalAlign=middle;resizable=0;points=[];autosize=1;strokeColor=none;fillColor=none;" parent="1" vertex="1">
          <mxGeometry x="175" y="460" width="50" height="30" as="geometry" />
        </mxCell>
        <mxCell id="zI_swqJ2BTHHL39JEJDZ-61" value="ldA" style="text;html=1;align=center;verticalAlign=middle;resizable=0;points=[];autosize=1;strokeColor=none;fillColor=none;" parent="1" vertex="1">
          <mxGeometry x="100" y="550" width="40" height="30" as="geometry" />
        </mxCell>
        <mxCell id="zI_swqJ2BTHHL39JEJDZ-62" value="Clock" style="text;html=1;align=center;verticalAlign=middle;resizable=0;points=[];autosize=1;strokeColor=none;fillColor=none;" parent="1" vertex="1">
          <mxGeometry x="80" y="620" width="50" height="30" as="geometry" />
        </mxCell>
        <mxCell id="zI_swqJ2BTHHL39JEJDZ-63" value="ldB" style="text;html=1;align=center;verticalAlign=middle;resizable=0;points=[];autosize=1;strokeColor=none;fillColor=none;" parent="1" vertex="1">
          <mxGeometry x="380" y="550" width="40" height="30" as="geometry" />
        </mxCell>
        <mxCell id="zI_swqJ2BTHHL39JEJDZ-64" value="enbB" style="text;html=1;align=center;verticalAlign=middle;resizable=0;points=[];autosize=1;strokeColor=none;fillColor=none;" parent="1" vertex="1">
          <mxGeometry x="410" y="463" width="50" height="30" as="geometry" />
        </mxCell>
        <mxCell id="zI_swqJ2BTHHL39JEJDZ-65" value="16" style="text;html=1;align=center;verticalAlign=middle;resizable=0;points=[];autosize=1;strokeColor=none;fillColor=none;" parent="1" vertex="1">
          <mxGeometry x="320" y="433" width="40" height="30" as="geometry" />
        </mxCell>
        <mxCell id="zI_swqJ2BTHHL39JEJDZ-66" value="16" style="text;html=1;align=center;verticalAlign=middle;resizable=0;points=[];autosize=1;strokeColor=none;fillColor=none;" parent="1" vertex="1">
          <mxGeometry x="580" y="433" width="40" height="30" as="geometry" />
        </mxCell>
        <mxCell id="zI_swqJ2BTHHL39JEJDZ-67" value="16" style="text;html=1;align=center;verticalAlign=middle;resizable=0;points=[];autosize=1;strokeColor=none;fillColor=none;" parent="1" vertex="1">
          <mxGeometry x="830" y="433" width="40" height="30" as="geometry" />
        </mxCell>
        <mxCell id="zI_swqJ2BTHHL39JEJDZ-68" value="16" style="text;html=1;align=center;verticalAlign=middle;resizable=0;points=[];autosize=1;strokeColor=none;fillColor=none;" parent="1" vertex="1">
          <mxGeometry x="1080" y="433" width="40" height="30" as="geometry" />
        </mxCell>
        <mxCell id="zI_swqJ2BTHHL39JEJDZ-76" value="ldC" style="text;html=1;align=center;verticalAlign=middle;resizable=0;points=[];autosize=1;strokeColor=none;fillColor=none;" parent="1" vertex="1">
          <mxGeometry x="620" y="547" width="40" height="30" as="geometry" />
        </mxCell>
        <mxCell id="zI_swqJ2BTHHL39JEJDZ-77" value="enbC" style="text;html=1;align=center;verticalAlign=middle;resizable=0;points=[];autosize=1;strokeColor=none;fillColor=none;" parent="1" vertex="1">
          <mxGeometry x="650" y="460" width="50" height="30" as="geometry" />
        </mxCell>
        <mxCell id="zI_swqJ2BTHHL39JEJDZ-78" value="ldD" style="text;html=1;align=center;verticalAlign=middle;resizable=0;points=[];autosize=1;strokeColor=none;fillColor=none;" parent="1" vertex="1">
          <mxGeometry x="890" y="550" width="40" height="30" as="geometry" />
        </mxCell>
        <mxCell id="zI_swqJ2BTHHL39JEJDZ-79" value="enbD" style="text;html=1;align=center;verticalAlign=middle;resizable=0;points=[];autosize=1;strokeColor=none;fillColor=none;" parent="1" vertex="1">
          <mxGeometry x="920" y="463" width="50" height="30" as="geometry" />
        </mxCell>
        <mxCell id="zI_swqJ2BTHHL39JEJDZ-84" value="" style="endArrow=none;html=1;rounded=0;exitX=0.5;exitY=0;exitDx=0;exitDy=0;entryX=0;entryY=0.5;entryDx=0;entryDy=0;" parent="1" source="zI_swqJ2BTHHL39JEJDZ-33" target="zI_swqJ2BTHHL39JEJDZ-85" edge="1">
          <mxGeometry width="50" height="50" relative="1" as="geometry">
            <mxPoint x="400" y="280" as="sourcePoint" />
            <mxPoint x="480" y="240" as="targetPoint" />
            <Array as="points">
              <mxPoint x="400" y="240" />
              <mxPoint x="510" y="240" />
            </Array>
          </mxGeometry>
        </mxCell>
        <mxCell id="zI_swqJ2BTHHL39JEJDZ-85" value="" style="triangle;whiteSpace=wrap;html=1;direction=south;" parent="1" vertex="1">
          <mxGeometry x="490" y="250" width="40" height="40" as="geometry" />
        </mxCell>
        <mxCell id="zI_swqJ2BTHHL39JEJDZ-86" value="" style="endArrow=none;html=1;rounded=0;jumpStyle=arc;entryX=0.5;entryY=0;entryDx=0;entryDy=0;" parent="1" edge="1">
          <mxGeometry width="50" height="50" relative="1" as="geometry">
            <mxPoint x="500" y="270" as="sourcePoint" />
            <mxPoint x="470" y="270" as="targetPoint" />
          </mxGeometry>
        </mxCell>
        <mxCell id="zI_swqJ2BTHHL39JEJDZ-87" value="" style="endArrow=none;html=1;rounded=0;" parent="1" edge="1">
          <mxGeometry width="50" height="50" relative="1" as="geometry">
            <mxPoint x="390" y="282" as="sourcePoint" />
            <mxPoint x="410" y="272" as="targetPoint" />
          </mxGeometry>
        </mxCell>
        <mxCell id="zI_swqJ2BTHHL39JEJDZ-88" value="16" style="text;html=1;align=center;verticalAlign=middle;resizable=0;points=[];autosize=1;strokeColor=none;fillColor=none;" parent="1" vertex="1">
          <mxGeometry x="370" y="255" width="40" height="30" as="geometry" />
        </mxCell>
        <mxCell id="zI_swqJ2BTHHL39JEJDZ-93" value="enbAdd" style="text;html=1;align=center;verticalAlign=middle;resizable=0;points=[];autosize=1;strokeColor=none;fillColor=none;" parent="1" vertex="1">
          <mxGeometry x="310" y="298" width="60" height="30" as="geometry" />
        </mxCell>
        <mxCell id="zI_swqJ2BTHHL39JEJDZ-96" value="enbBusA" style="text;html=1;align=center;verticalAlign=middle;resizable=0;points=[];autosize=1;strokeColor=none;fillColor=none;" parent="1" vertex="1">
          <mxGeometry x="425" y="240" width="70" height="30" as="geometry" />
        </mxCell>
        <mxCell id="ppBTQ4ko90u29jbVjFLx-1" value="" style="endArrow=none;html=1;rounded=0;entryX=1;entryY=0.5;entryDx=0;entryDy=0;" edge="1" parent="1" target="zI_swqJ2BTHHL39JEJDZ-85">
          <mxGeometry width="50" height="50" relative="1" as="geometry">
            <mxPoint x="510" y="440" as="sourcePoint" />
            <mxPoint x="510" y="340" as="targetPoint" />
          </mxGeometry>
        </mxCell>
      </root>
    </mxGraphModel>
  </diagram>
</mxfile>
